<?xml version="1.0" encoding="UTF-8" standalone="no"?>
<!-- Created with Inkscape (http://www.inkscape.org/) -->

<svg
   xmlns:dc="http://purl.org/dc/elements/1.1/"
   xmlns:cc="http://creativecommons.org/ns#"
   xmlns:rdf="http://www.w3.org/1999/02/22-rdf-syntax-ns#"
   xmlns:svg="http://www.w3.org/2000/svg"
   xmlns="http://www.w3.org/2000/svg"
   xmlns:sodipodi="http://sodipodi.sourceforge.net/DTD/sodipodi-0.dtd"
   xmlns:inkscape="http://www.inkscape.org/namespaces/inkscape"
   width="290.05701"
   height="316.73706"
   id="svg3280"
   version="1.1"
   inkscape:version="0.48.2 r9819"
   sodipodi:docname="pingroup-penguin.svg">
  <defs
     id="defs3282" />
  <sodipodi:namedview
     id="base"
     pagecolor="#ffffff"
     bordercolor="#666666"
     borderopacity="1.0"
     inkscape:pageopacity="0.0"
     inkscape:pageshadow="2"
     inkscape:zoom="5.6"
     inkscape:cx="181.22622"
     inkscape:cy="128.37404"
     inkscape:document-units="pt"
     inkscape:current-layer="layer1"
     showgrid="false"
     units="pt"
     fit-margin-top="0"
     fit-margin-left="0"
     fit-margin-right="0"
     fit-margin-bottom="0"
     inkscape:window-width="1920"
     inkscape:window-height="1013"
     inkscape:window-x="-2"
     inkscape:window-y="22"
     inkscape:window-maximized="1" />
  <metadata
     id="metadata3285">
    <rdf:RDF>
      <cc:Work
         rdf:about="">
        <dc:format>image/svg+xml</dc:format>
        <dc:type
           rdf:resource="http://purl.org/dc/dcmitype/StillImage" />
        <dc:title />
      </cc:Work>
    </rdf:RDF>
  </metadata>
  <g
     inkscape:label="Layer 1"
     inkscape:groupmode="layer"
     id="layer1"
     transform="translate(-1798.3318,-1078.8399)">
    <path
       style="fill:#000000;fill-opacity:1;stroke:none"
       d="M 72.78125 147.6875 C 63.63395 147.6875 56.21875 155.1028 56.21875 164.25 C 56.21875 173.3972 63.63395 180.8125 72.78125 180.8125 C 81.92845 180.8125 89.34375 173.3972 89.34375 164.25 C 89.34375 155.1028 81.92845 147.6875 72.78125 147.6875 z M 72.78125 157.75 C 76.37105 157.75 79.28125 160.6602 79.28125 164.25 C 79.28125 167.8399 76.37105 170.75 72.78125 170.75 C 69.19135 170.75 66.28125 167.8399 66.28125 164.25 C 66.28125 160.6602 69.19135 157.75 72.78125 157.75 z "
       transform="translate(1798.3318,1078.8399)"
       id="path3005" />
    <path
       style="fill:#000000"
       inkscape:connector-curvature="0"
       id="path13"
       d="m 1957.7205,1081.292 c 2.5513,-3.5599 5.2165,-2.6179 5.9137,-1.0808 6.4172,11.1202 4.8081,24.9237 4.107,34.7518 7.3227,-1.8052 13.7316,-6.8664 16.892,-9.82 3.0589,-2.7313 4.6857,-5.0036 7.2955,-2.6974 5.4073,4.6654 9.6375,23.509 8.275,37.2424 26.85,10.8375 50.6,29.6625 66.1625,54.175 19.1125,29.575 25.9125,66.4875 19.9,101.075 -3.725,21.675 -13.6875,42.3125 -28.9,58.25 -21.8,22.95 -52.4375,35.775 -83.4,40.2 -31.025,4.3125 -63.2875,2.5125 -93.025,-7.725 -26.825,-9.3125 -51.4375,-26.875 -66.0625,-51.5625 -15.4,-25.6125 -19.2625,-56.9125 -14.825,-86.1375 5.0375,-34.1125 23.2875,-66.2875 50.6625,-87.4 15.05,-11.65 32.3875,-19.75 48.8375,-29.1375 16.525,-9.3375 32.825,-19.7875 45.4625,-34.15 5.1477,-5.7712 9.0578,-12.0878 12.7044,-15.9835 z m -99.0418,110.8585 c -17.3,10.7125 -28.2875,29.1625 -34.4375,48.15 -3.7625,12.7625 -6.9125,26.75 -2.725,39.8 1.8125,6.375 6.125,10.9125 9.975,16.1125 -4.9,5.3125 -9.35,11.9375 -10.4875,19.25 -0.95,6.85 2.0375,13.4875 5.95,18.9375 15.25,22.3125 39.475,37.2625 65.2,44.55 27.5125,7.7625 56.775,8.6375 84.9125,4.025 28.925,-4.9125 57.5125,-17.8875 76.6625,-40.6875 5.425,-6.7125 11.475,-13.9375 12.1375,-22.925 0.5,-8.8375 -4.8875,-16.9875 -10.625,-23.15 6.175,-7.425 11.575,-15.6 11.85,-25.5875 0.575,-18.9125 -5.6875,-37.625 -15.2375,-53.775 -10.025,-16.85 -26.975,-30.925 -47.15,-32.3625 -18.1125,-2.175 -36.25,4.65 -49.975,16.3 -4.2875,2.925 -9.15,9.0375 -14.825,5.725 -6.825,-4.3 -12.6625,-10.0625 -19.775,-13.9375 -18.475,-10.7625 -42.975,-11.65 -61.45,-0.425 z"
       sodipodi:nodetypes="cccccccccccccccccccccccccccccccccccc" />
    <path
       style="fill:#000000"
       d="M 145.03125 179.65625 C 140.03005 179.65625 136.27835 180.30285 125.40625 182.96875 C 116.06775 185.59895 108.02375 189.1675 103.21875 191.75 C 90.67795 198.1523 82.84375 203.51725 82.84375 209.96875 C 82.84375 216.65085 89.38925 220.6167 99.15625 224.625 C 103.55655 226.141 108.48655 227.4721 114.15625 228.375 C 125.00575 230.448 145.03125 230.6875 145.03125 230.6875 C 145.03125 230.6875 165.05675 230.448 175.90625 228.375 C 181.57595 227.4721 186.50595 226.141 190.90625 224.625 C 200.67325 220.6167 207.21875 216.65085 207.21875 209.96875 C 207.21875 203.51725 199.4158 198.1523 186.875 191.75 C 182.07 189.1675 173.99485 185.59885 164.65625 182.96875 C 153.78425 180.30285 150.03235 179.65625 145.03125 179.65625 z M 145.03125 187.0625 C 150.03125 187.0625 152.85255 187.726 161.71875 190 C 170.58545 192.6478 172.38395 193.60925 179.71875 196.84375 C 191.08795 202.15405 199.0625 206.6089 199.0625 209.875 C 199.0625 214.3564 192.03525 216.1869 183.59375 218.875 C 179.79065 219.8918 175.5253 220.80075 170.625 221.40625 C 161.248 222.79655 155.03575 223 145.03125 223 C 135.02665 223 128.8146 222.79655 119.4375 221.40625 C 114.5372 220.80075 110.27185 219.8918 106.46875 218.875 C 98.02725 216.1869 91 214.3564 91 209.875 C 91 206.6089 98.97455 202.15405 110.34375 196.84375 C 117.67865 193.60925 119.47715 192.6478 128.34375 190 C 137.21005 187.726 140.03115 187.0625 145.03125 187.0625 z "
       transform="translate(1798.3318,1078.8399)"
       id="path2993" />
    <path
       d="m 1909.6162,1281.838 67.5,0 c 0,0 5,-0.6212 5,4.375 0,4.9959 -5,4.375 -5,4.375 l -67.5,0 c 0,0 -5,0.6288 -5,-4.375 0,-5.0031 5,-4.375 5,-4.375 z"
       id="path3021"
       inkscape:connector-curvature="0"
       style="fill:#000000"
       sodipodi:nodetypes="cczcczc" />
    <path
       style="fill:#000000;fill-opacity:1;stroke:none"
       d="M 217.28125 147.6875 C 208.13395 147.6875 200.71875 155.1028 200.71875 164.25 C 200.71875 173.3972 208.13395 180.8125 217.28125 180.8125 C 226.42845 180.8125 233.84375 173.3972 233.84375 164.25 C 233.84375 155.1028 226.42845 147.6875 217.28125 147.6875 z M 217.28125 157.75 C 220.87105 157.75 223.78125 160.6602 223.78125 164.25 C 223.78125 167.8399 220.87105 170.75 217.28125 170.75 C 213.69135 170.75 210.78125 167.8399 210.78125 164.25 C 210.78125 160.6602 213.69135 157.75 217.28125 157.75 z "
       transform="translate(1798.3318,1078.8399)"
       id="path3006" />
  </g>
</svg>
